<svg width="82" height="82" viewBox="0 0 82 82" fill="none" xmlns="http://www.w3.org/2000/svg">
<path d="M73.2859 29.4175L42.5359 14.0425C42.0634 13.8077 41.543 13.6855 41.0155 13.6855C40.4879 13.6855 39.9675 13.8077 39.4951 14.0425L18.9951 24.2925L8.74505 29.4175L5.32839 31.1258C4.76493 31.4097 4.29109 31.8441 3.95941 32.3809C3.62772 32.9176 3.45113 33.5357 3.44922 34.1667V54.6667H10.2826V36.285L17.1159 39.7017V52.7875C17.1159 59.8258 27.7759 68.3675 41.0326 68.3675C54.2892 68.3675 64.9492 59.86 64.9492 52.7875V39.7017L73.3201 35.5333C74.4817 34.9525 75.1992 33.7567 75.1992 32.4925C75.1992 31.2283 74.4817 30.0325 73.3201 29.4517L73.2859 29.4175ZM22.0359 30.4083L40.9984 20.91L64.0951 32.4583L40.9984 44.0067L17.9017 32.4583L22.0359 30.3742V30.4083ZM58.0817 52.7875C58.0817 55.3842 50.8726 61.5342 40.9984 61.5342C31.1242 61.5342 23.9151 55.4183 23.9151 52.7875V43.1183L39.4609 50.9083C39.9392 51.1475 40.4517 51.2842 40.9984 51.2842C41.5451 51.2842 42.0576 51.1475 42.5359 50.9083L58.0817 43.1183V52.7875Z" fill="#5E8DC6"/>
</svg>
