<svg width="171" height="171" viewBox="0 0 171 171" fill="none" xmlns="http://www.w3.org/2000/svg">
<path d="M149.727 117.613H135.477V131.863H149.727V117.613ZM149.727 117.613H163.977V46.3628H149.727V117.613ZM35.7266 146.113H49.9766V131.863H35.7266V146.113ZM21.4766 131.863H35.7266V117.613H21.4766V131.863ZM7.22656 117.613H21.4766V46.3628H7.22656V117.613ZM49.9766 160.363H121.227V146.113H49.9766V160.363ZM21.4766 46.3628H35.7266V32.1128H21.4766V46.3628ZM121.227 146.113H135.477V131.863H121.227V146.113ZM35.7266 32.1128H49.9766V17.8628H35.7266V32.1128ZM49.9766 17.8628H121.227V3.61279H49.9766V17.8628ZM135.477 46.3628H149.727V32.1128H135.477V46.3628ZM121.227 32.1128H135.477V17.8628H121.227V32.1128Z" fill="#E3E3E3"/>
</svg>
