<svg width="74" height="38" viewBox="0 0 74 38" fill="none" xmlns="http://www.w3.org/2000/svg">
<path d="M9.94316 25.6348C8.68809 25.5938 7.43027 25.6567 6.18887 25.8317C5.12246 25.982 4.06973 26.2199 3.04434 26.5399C2.79551 26.6164 2.5166 26.6793 2.28144 26.7969C2.13105 26.8735 2.00801 26.961 1.87402 26.7942C1.68809 26.5699 1.81113 26.1625 1.84121 25.9055C1.90137 25.3887 1.96973 24.8746 2.04902 24.3606C2.39355 22.0719 2.85566 19.8051 3.17012 17.511C3.30684 16.4965 3.41894 15.4738 3.55019 14.4594C3.61582 13.9371 3.68965 13.4149 3.77441 12.8953C3.87832 12.2582 3.9002 11.8098 4.49629 11.4242C5.51074 10.768 6.72754 10.4781 7.88965 10.1965C9.14199 9.89299 10.3916 9.63595 11.6877 9.68517C12.5955 9.72072 13.4787 9.96135 14.2799 10.3852C14.6682 10.5903 15.04 10.8309 15.3928 11.0961C15.7428 11.3559 16.1693 11.6348 16.4482 11.9684C16.6971 12.2637 16.7764 12.5317 16.801 12.8379C16.6287 16.7563 16.6561 26.4715 16.6861 27.1606C16.6889 27.218 16.6943 27.2754 16.6971 27.3328C16.6834 27.4067 16.6424 27.4641 16.5221 27.4641C16.3771 27.4668 16.2186 27.3711 16.0928 27.3055C15.833 27.1688 15.5705 27.0375 15.308 26.9145C13.61 26.1133 11.8217 25.6949 9.94316 25.6348ZM33.1279 26.7914C32.9912 26.9582 32.8709 26.8707 32.7205 26.7942C32.4881 26.6766 32.2092 26.6137 31.9576 26.5371C30.9322 26.2172 29.8795 25.982 28.8131 25.8289C27.5717 25.6539 26.3111 25.5938 25.0561 25.632C23.1803 25.6922 21.392 26.1106 19.6912 26.9117C19.4287 27.0375 19.1662 27.1688 18.9064 27.3028C18.7807 27.3684 18.6221 27.4613 18.4744 27.4613C18.3541 27.4613 18.3131 27.4039 18.2994 27.3301C18.3021 27.2727 18.3104 27.2153 18.3104 27.1578C18.3404 26.4688 18.3705 16.7535 18.1955 12.8352C18.2201 12.5289 18.2994 12.261 18.5455 11.9656C18.8299 11.632 19.2537 11.3504 19.6037 11.0934C19.9564 10.8309 20.3256 10.5875 20.7166 10.3824C21.5205 9.95861 22.401 9.71799 23.3088 9.68244C24.6049 9.63049 25.8545 9.89025 27.1068 10.1938C28.2689 10.4754 29.4857 10.7625 30.5029 11.4215C31.099 11.807 31.1209 12.2555 31.2248 12.8926C31.3096 13.4121 31.3834 13.9344 31.449 14.4567C31.5775 15.4738 31.6896 16.4938 31.8291 17.5082C32.1436 19.7996 32.6084 22.0692 32.9502 24.3578C33.024 24.8719 33.0979 25.386 33.158 25.9028C33.1908 26.1598 33.3139 26.5672 33.1279 26.7914Z" fill="white"/>
<path d="M34.6716 29.2086C34.6908 28.8258 34.8657 27.7566 34.8603 27.5488C34.8411 24.8856 33.1513 16.1082 32.8806 13.9699L32.8642 13.8387C32.7712 12.9992 32.7357 12.0012 32.4267 11.2082C32.115 10.4098 31.106 10.1309 30.3786 9.84923C27.3681 8.70079 23.9693 7.73282 20.7755 8.74454C19.5286 9.13829 18.4048 9.84102 17.5025 10.9484C16.6029 9.84102 15.4763 9.13829 14.2322 8.74454C11.0384 7.73282 7.63958 8.70079 4.62903 9.84923C3.90169 10.1281 2.88723 10.407 2.57825 11.2082C2.26926 12.0012 2.23372 12.9965 2.14075 13.8387L2.12434 13.9699C1.85364 16.1082 0.16653 24.8856 0.144655 27.5488C0.139186 27.7594 0.31692 28.8258 0.336061 29.2086C0.363405 29.7609 0.29778 30.316 0.325124 30.8656C0.270436 31.057 0.319655 31.2375 0.437233 31.3797C0.513795 31.5274 0.631374 31.6176 0.759889 31.6641C1.05247 31.9867 1.58294 31.7734 1.9302 31.6641C5.04192 30.6578 8.46262 30.6961 11.6728 31.1227C12.2415 31.1965 12.8075 31.2895 13.3708 31.3988C13.956 31.5137 14.5111 31.7215 15.0716 31.9211C15.5337 32.0852 16.0177 32.2219 16.5044 32.3149C16.8544 32.3941 17.1962 32.427 17.3521 32.4297C17.4068 32.4297 17.456 32.4242 17.5079 32.4215C17.5599 32.4215 17.6118 32.4297 17.6638 32.4297C17.8197 32.4297 18.1615 32.3969 18.5114 32.3149C18.9982 32.2219 19.4822 32.0852 19.9443 31.9211C20.5048 31.7215 21.0626 31.5137 21.6478 31.3988C22.2111 31.2895 22.7771 31.1965 23.3458 31.1227C26.5532 30.6961 29.9767 30.6578 33.0884 31.6641C33.4329 31.7762 33.9634 31.9867 34.256 31.6641C34.3872 31.6176 34.5021 31.5274 34.5786 31.3797C34.6962 31.2375 34.7454 31.057 34.6908 30.8656C34.7099 30.3133 34.6443 29.7609 34.6716 29.2086ZM9.94192 25.6348C8.68684 25.5938 7.42903 25.6566 6.18762 25.8316C5.12122 25.982 4.06848 26.2199 3.04309 26.5399C2.79426 26.6164 2.51536 26.6793 2.2802 26.7969C2.12981 26.8734 2.00676 26.9609 1.87278 26.7941C1.68684 26.5699 1.80989 26.1625 1.83997 25.9055C1.90012 25.3887 1.96848 24.8746 2.04778 24.3606C2.39231 22.0719 2.85442 19.8051 3.16887 17.5109C3.30559 16.4965 3.4177 15.4738 3.54895 14.4594C3.61458 13.9371 3.68841 13.4149 3.77317 12.8953C3.87708 12.2582 3.89895 11.8098 4.49505 11.4242C5.5095 10.768 6.7263 10.4781 7.8884 10.1965C9.14075 9.89298 10.3904 9.63594 11.6865 9.68516C12.5943 9.72071 13.4775 9.96134 14.2786 10.3852C14.6669 10.5902 15.0388 10.8309 15.3915 11.0961C15.7415 11.3559 16.1681 11.6348 16.447 11.9684C16.6958 12.2637 16.7751 12.5316 16.7997 12.8379C16.6275 16.7563 16.6548 26.4715 16.6849 27.1606C16.6876 27.218 16.6931 27.2754 16.6958 27.3328C16.6822 27.4066 16.6411 27.4641 16.5208 27.4641C16.3759 27.4668 16.2173 27.3711 16.0915 27.3055C15.8318 27.1688 15.5693 27.0375 15.3068 26.9145C13.6087 26.1133 11.8204 25.6949 9.94192 25.6348ZM33.1267 26.7914C32.99 26.9582 32.8697 26.8707 32.7193 26.7941C32.4868 26.6766 32.2079 26.6137 31.9564 26.5371C30.931 26.2172 29.8783 25.982 28.8118 25.8289C27.5704 25.6539 26.3099 25.5938 25.0548 25.632C23.179 25.6922 21.3907 26.1106 19.69 26.9117C19.4275 27.0375 19.165 27.1688 18.9052 27.3027C18.7794 27.3684 18.6208 27.4613 18.4732 27.4613C18.3529 27.4613 18.3118 27.4039 18.2982 27.3301C18.3009 27.2727 18.3091 27.2152 18.3091 27.1578C18.3392 26.4688 18.3693 16.7535 18.1943 12.8352C18.2189 12.5289 18.2982 12.2609 18.5443 11.9656C18.8286 11.632 19.2525 11.3504 19.6025 11.0934C19.9552 10.8309 20.3243 10.5875 20.7154 10.3824C21.5193 9.9586 22.3997 9.71798 23.3075 9.68243C24.6036 9.63048 25.8532 9.89024 27.1056 10.1938C28.2677 10.4754 29.4845 10.7625 30.5017 11.4215C31.0978 11.807 31.1197 12.2555 31.2236 12.8926C31.3083 13.4121 31.3822 13.9344 31.4478 14.4566C31.5763 15.4738 31.6884 16.4938 31.8279 17.5082C32.1423 19.7996 32.6072 22.0691 32.949 24.3578C33.0228 24.8719 33.0966 25.3859 33.1568 25.9027C33.1896 26.1598 33.3126 26.5672 33.1267 26.7914Z" fill="#0361D3"/>
<path d="M14.513 12.7451C11.9235 11.531 8.43447 11.4654 5.82861 12.7123C5.13955 13.0431 5.74111 14.0412 6.42471 13.7322C8.64228 12.7205 11.6829 12.8736 13.8349 13.9045C14.6114 14.2736 15.2923 13.1115 14.513 12.7451ZM14.431 15.9443C11.6747 14.7357 8.13096 14.2791 5.3501 15.7119C4.7458 16.0236 5.27627 16.8767 5.8751 16.6088C8.42627 15.4685 11.4833 16.1385 13.9634 17.0572C14.606 17.2978 15.0626 16.2205 14.431 15.9443ZM14.286 19.1353C13.9935 18.8892 13.586 18.7744 13.2333 18.6459C10.6739 17.7107 7.2751 17.6724 4.81689 18.9303C4.27549 19.2064 4.73213 19.9939 5.26533 19.8408C6.60518 19.4607 7.86572 19.2502 9.25752 19.2365C10.3485 19.2256 11.3384 19.3404 12.3802 19.6521C12.6946 19.7451 12.9954 19.7806 13.2962 19.9228C13.5122 20.024 13.7802 20.1525 14.0181 20.1826C14.5376 20.2455 14.6442 19.4826 14.3517 19.1928L14.286 19.1353ZM14.0153 22.217C11.0567 20.8224 7.73721 21.0795 4.74307 22.1349C4.1251 22.3537 4.42041 23.3053 5.04932 23.1084C6.45752 22.6654 7.63057 22.3345 9.12627 22.3154C10.5645 22.299 12.1259 22.7693 13.4438 23.2861C14.152 23.5678 14.7345 22.556 14.0153 22.217ZM21.1685 13.9017C23.3204 12.8709 26.361 12.7205 28.5786 13.7295C29.2595 14.0412 29.8638 13.0404 29.1747 12.7095C26.5716 11.4627 23.0825 11.5283 20.4931 12.7424C19.711 13.1115 20.3892 14.2736 21.1685 13.9017ZM21.0427 17.0572C23.5228 16.1385 26.5798 15.4685 29.131 16.6088C29.7298 16.8767 30.2603 16.0236 29.656 15.7119C26.8724 14.2791 23.3286 14.7357 20.5751 15.9443C19.9435 16.2205 20.3974 17.2978 21.0427 17.0572ZM20.9853 20.1853C21.2259 20.1553 21.4884 20.0267 21.7044 19.9256C22.0079 19.7834 22.3087 19.7478 22.6231 19.6549C23.6649 19.3459 24.6548 19.231 25.7458 19.2392C27.1376 19.2502 28.4009 19.4607 29.7407 19.8435C30.2712 19.9967 30.7278 19.2064 30.1892 18.933C27.731 17.6752 24.3294 17.7135 21.7728 18.6486C21.42 18.7771 21.0126 18.8892 20.7173 19.1381L20.6517 19.1982C20.3563 19.4826 20.4685 20.2482 20.9853 20.1853ZM30.263 22.1349C27.2688 21.0795 23.9493 20.8224 20.9907 22.217C20.2716 22.556 20.854 23.5678 21.5649 23.2861C22.8802 22.7693 24.4388 22.299 25.8798 22.3154C27.3728 22.3345 28.5485 22.6654 29.954 23.1084C30.5856 23.308 30.881 22.3537 30.263 22.1349Z" fill="#0361D3"/>
<path d="M56.4987 5.9165C50.0674 5.9165 44.832 11.1519 44.832 17.5832C44.832 21.2582 46.5383 24.5394 49.207 26.6832V33.6394C49.207 34.1498 49.4695 34.6165 49.8924 34.879C50.3154 35.1415 50.8549 35.1707 51.307 34.9373L56.4841 32.3415L61.6612 34.9373C61.8831 35.0505 62.1303 35.1048 62.3791 35.095C62.628 35.0851 62.8702 35.0116 63.0824 34.8813C63.2947 34.751 63.4699 34.5684 63.5913 34.3509C63.7127 34.1335 63.7762 33.8885 63.7758 33.6394V26.6978C66.4445 24.554 68.1508 21.2728 68.1508 17.5978C68.1508 11.1665 62.9154 5.93109 56.4841 5.93109L56.4987 5.9165ZM56.4987 26.3332C51.6716 26.3332 47.7487 22.4103 47.7487 17.5832C47.7487 12.7561 51.6716 8.83317 56.4987 8.83317C61.3258 8.83317 65.2487 12.7561 65.2487 17.5832C65.2487 22.4103 61.3258 26.3332 56.4987 26.3332Z" fill="#0361D3"/>
</svg>
